<?xml version="1.0" encoding="UTF-8" standalone="no"?>
<!DOCTYPE svg PUBLIC "-//W3C//DTD SVG 1.0//EN" "http://www.w3.org/TR/2001/PR-SVG-20010719/DTD/svg10.dtd">
<svg width="69cm" height="38cm" viewBox="113 -85 1373 756" xmlns="http://www.w3.org/2000/svg" xmlns:xlink="http://www.w3.org/1999/xlink">
  <g>
    <rect style="fill: #ffffff" x="115" y="21" width="1370" height="649"/>
    <rect style="fill: none; fill-opacity:0; stroke-width: 2; stroke: #000000" x="115" y="21" width="1370" height="649"/>
    <rect style="fill: #ffffff" x="115" y="1" width="134.9" height="20"/>
    <rect style="fill: none; fill-opacity:0; stroke-width: 2; stroke: #000000" x="115" y="1" width="134.9" height="20"/>
    <text font-size="12.7998" style="fill: #000000;text-anchor:start;font-family:monospace;font-style:normal;font-weight:normal" x="117" y="15">javax.swing.table</text>
  </g>
  <g>
    <rect style="fill: #ffffff" x="619.9" y="127" width="395" height="44"/>
    <rect style="fill: none; fill-opacity:0; stroke-width: 2; stroke: #000000" x="619.9" y="127" width="395" height="44"/>
    <text font-size="12.8" style="fill: #000000;text-anchor:middle;font-family:monospace;font-style:normal;font-weight:normal" x="817.4" y="142.2">&lt;&lt;interface&gt;&gt;</text>
    <text font-size="16" style="fill: #000000;text-anchor:middle;font-family:sans-serif;font-style:normal;font-weight:700" x="817.4" y="163">TableModel</text>
    <rect style="fill: #ffffff" x="619.9" y="171" width="395" height="84"/>
    <rect style="fill: none; fill-opacity:0; stroke-width: 2; stroke: #000000" x="619.9" y="171" width="395" height="84"/>
    <text font-size="12.8" style="fill: #000000;text-anchor:start;font-family:monospace;font-style:normal;font-weight:normal" x="622.9" y="184.2">+getColumnCount(): int</text>
    <text font-size="12.8" style="fill: #000000;text-anchor:start;font-family:monospace;font-style:normal;font-weight:normal" x="622.9" y="200.2">+getRowCount(): int</text>
    <text font-size="12.8" style="fill: #000000;text-anchor:start;font-family:monospace;font-style:normal;font-weight:normal" x="622.9" y="216.2">+getValueAt(rowIndex:int, columnIndex:int): Object</text>
    <text font-size="12.8" style="fill: #000000;text-anchor:start;font-family:monospace;font-style:normal;font-weight:normal" x="622.9" y="232.2">+getColumnClass (columnIndex: int): Class</text>
    <text font-size="12.8" style="fill: #000000;text-anchor:start;font-family:monospace;font-style:normal;font-weight:normal" x="622.9" y="248.2">+getColumnName (columnIndex: int): String</text>
    <rect style="fill: #ffffff" x="619.9" y="255" width="395" height="8"/>
    <rect style="fill: none; fill-opacity:0; stroke-width: 2; stroke: #000000" x="619.9" y="255" width="395" height="8"/>
  </g>
  <g>
    <rect style="fill: #ffffff" x="194" y="140" width="325.7" height="44"/>
    <rect style="fill: none; fill-opacity:0; stroke-width: 2; stroke: #000000" x="194" y="140" width="325.7" height="44"/>
    <text font-size="12.8" style="fill: #000000;text-anchor:middle;font-family:monospace;font-style:normal;font-weight:normal" x="356.85" y="155.2">&lt;&lt;Abstract&gt;&gt;</text>
    <text font-size="16" style="fill: #000000;text-anchor:middle;font-family:sans-serif;font-style:normal;font-weight:700" x="356.85" y="176">AbstractTableModel</text>
    <rect style="fill: #ffffff" x="194" y="184" width="325.7" height="52"/>
    <rect style="fill: none; fill-opacity:0; stroke-width: 2; stroke: #000000" x="194" y="184" width="325.7" height="52"/>
    <text font-size="12.8" style="fill: #000000;text-anchor:start;font-family:monospace;font-style:normal;font-weight:normal" x="197" y="197.2">+getColumnClass (columnIndex: int): Class</text>
    <text font-size="12.8" style="fill: #000000;text-anchor:start;font-family:monospace;font-style:normal;font-weight:normal" x="197" y="213.2">+getColumnName (columnIndex:int): String</text>
    <text font-size="12.8" style="fill: #000000;text-anchor:start;font-family:monospace;font-style:normal;font-weight:normal" x="197" y="229.2">+...()</text>
    <rect style="fill: #ffffff" x="194" y="236" width="325.7" height="8"/>
    <rect style="fill: none; fill-opacity:0; stroke-width: 2; stroke: #000000" x="194" y="236" width="325.7" height="8"/>
  </g>
  <g>
    <rect style="fill: #ffffff" x="314" y="-84" width="62.8" height="28"/>
    <rect style="fill: none; fill-opacity:0; stroke-width: 2; stroke: #000000" x="314" y="-84" width="62.8" height="28"/>
    <text font-size="16" style="fill: #000000;text-anchor:middle;font-family:sans-serif;font-style:normal;font-weight:700" x="345.4" y="-64">Object</text>
    <rect style="fill: #ffffff" x="314" y="-56" width="62.8" height="8"/>
    <rect style="fill: none; fill-opacity:0; stroke-width: 2; stroke: #000000" x="314" y="-56" width="62.8" height="8"/>
    <rect style="fill: #ffffff" x="314" y="-48" width="62.8" height="8"/>
    <rect style="fill: none; fill-opacity:0; stroke-width: 2; stroke: #000000" x="314" y="-48" width="62.8" height="8"/>
  </g>
  <g>
    <polyline style="fill: none; fill-opacity:0; stroke-width: 2; stroke: #000000" points="345.4,-21.7639 345.4,58 356.85,58 356.85,140 "/>
    <polygon style="fill: #ffffff" points="353.4,-21.7639 345.4,-37.7639 337.4,-21.7639 "/>
    <polygon style="fill: none; fill-opacity:0; stroke-width: 2; stroke: #000000" points="353.4,-21.7639 345.4,-37.7639 337.4,-21.7639 "/>
  </g>
  <g>
    <polyline style="fill: none; fill-opacity:0; stroke-width: 2; stroke-dasharray: 8; stroke: #000000" points="601.664,149 562.303,149 562.303,192 520.705,192 "/>
    <polygon style="fill: #ffffff" points="601.664,157 617.664,149 601.664,141 "/>
    <polygon style="fill: none; fill-opacity:0; stroke-width: 2; stroke: #000000" points="601.664,157 617.664,149 601.664,141 "/>
  </g>
  <g>
    <rect style="fill: #ffffff" x="420" y="-83" width="110.1" height="44"/>
    <rect style="fill: none; fill-opacity:0; stroke-width: 2; stroke: #000000" x="420" y="-83" width="110.1" height="44"/>
    <text font-size="12.8" style="fill: #000000;text-anchor:middle;font-family:monospace;font-style:normal;font-weight:normal" x="475.05" y="-67.8">&lt;&lt;Interface&gt;&gt;</text>
    <text font-size="16" style="fill: #000000;text-anchor:middle;font-family:sans-serif;font-style:normal;font-weight:700" x="475.05" y="-47">Serializable</text>
    <rect style="fill: #ffffff" x="420" y="-39" width="110.1" height="8"/>
    <rect style="fill: none; fill-opacity:0; stroke-width: 2; stroke: #000000" x="420" y="-39" width="110.1" height="8"/>
    <rect style="fill: #ffffff" x="420" y="-31" width="110.1" height="8"/>
    <rect style="fill: none; fill-opacity:0; stroke-width: 2; stroke: #000000" x="420" y="-31" width="110.1" height="8"/>
  </g>
  <g>
    <polyline style="fill: none; fill-opacity:0; stroke-width: 2; stroke-dasharray: 8; stroke: #000000" points="475.05,-4.76393 475.05,66.5 519.7,66.5 519.7,140 "/>
    <polygon style="fill: #ffffff" points="483.05,-4.76393 475.05,-20.7639 467.05,-4.76393 "/>
    <polygon style="fill: none; fill-opacity:0; stroke-width: 2; stroke: #000000" points="483.05,-4.76393 475.05,-20.7639 467.05,-4.76393 "/>
  </g>
  <g>
    <rect style="fill: #ffffff" x="258" y="372" width="387.3" height="28"/>
    <rect style="fill: none; fill-opacity:0; stroke-width: 2; stroke: #000000" x="258" y="372" width="387.3" height="28"/>
    <text font-size="16" style="fill: #000000;text-anchor:middle;font-family:sans-serif;font-style:normal;font-weight:700" x="451.65" y="392">DefaultTableModel</text>
    <rect style="fill: #ffffff" x="258" y="400" width="387.3" height="52"/>
    <rect style="fill: none; fill-opacity:0; stroke-width: 2; stroke: #000000" x="258" y="400" width="387.3" height="52"/>
    <text font-size="12.8" style="fill: #000000;text-anchor:start;font-family:monospace;font-style:normal;font-weight:normal" x="261" y="413.2">#columnIdentifiers: Vector</text>
    <text font-size="12.8" style="fill: #000000;text-anchor:start;font-family:monospace;font-style:normal;font-weight:normal" x="261" y="429.2">+dataVector: Vector of Vectors of Object values</text>
    <text font-size="12.8" style="fill: #000000;text-anchor:start;font-family:monospace;font-style:normal;font-weight:normal" x="261" y="445.2">+</text>
    <rect style="fill: #ffffff" x="258" y="452" width="387.3" height="68"/>
    <rect style="fill: none; fill-opacity:0; stroke-width: 2; stroke: #000000" x="258" y="452" width="387.3" height="68"/>
    <text font-size="12.8" style="fill: #000000;text-anchor:start;font-family:monospace;font-style:normal;font-weight:normal" x="261" y="465.2">+getColumnCount(): int</text>
    <text font-size="12.8" style="fill: #000000;text-anchor:start;font-family:monospace;font-style:normal;font-weight:normal" x="261" y="481.2">+getRowCount(): int</text>
    <text font-size="12.8" style="fill: #000000;text-anchor:start;font-family:monospace;font-style:normal;font-weight:normal" x="261" y="497.2">+getValueAt(rowIndex:int,columnIndex:int): Object</text>
    <text font-size="12.8" style="fill: #000000;text-anchor:start;font-family:monospace;font-style:normal;font-weight:normal" x="261" y="513.2">+()</text>
  </g>
  <g>
    <polyline style="fill: none; fill-opacity:0; stroke-width: 2; stroke: #000000" points="356.85,262.236 356.85,316 451.65,316 451.65,372 "/>
    <polygon style="fill: #ffffff" points="364.85,262.236 356.85,246.236 348.85,262.236 "/>
    <polygon style="fill: none; fill-opacity:0; stroke-width: 2; stroke: #000000" points="364.85,262.236 356.85,246.236 348.85,262.236 "/>
  </g>
</svg>
